subject11_noload_free_trial03_ground_reaction																		
version=1																		
nRows=51																		
nColumns=19																		
inDegrees=no																		
endheader																		
time	ground_force_r_vx	ground_force_r_vy	ground_force_r_vz	ground_force_r_px	ground_force_r_py	ground_force_r_pz	ground_torque_r_x	ground_torque_r_y	ground_torque_r_z	ground_force_l_vx	ground_force_l_vy	ground_force_l_vz	ground_force_l_px	ground_force_l_py	ground_force_l_pz	ground_torque_l_x	ground_torque_l_y	ground_torque_l_z
0.825	100.202151	941.7295	-53.192169	0.244094	0	-0.166212	0	5.806297	0	4.218203	9.098512	1.584565	0.763977	0	-0.311923	0	-1.030122	0
0.8255	100.657593	941.974126	-53.181633	0.244278	0	-0.166238	0	5.780676	0	4.314963	9.429657	1.552553	0.763681	0	-0.311733	0	-1.031557	0
0.826	101.115024	942.19998	-53.169851	0.244462	0	-0.166264	0	5.755127	0	4.414774	9.772082	1.519427	0.763396	0	-0.311551	0	-1.032959	0
0.8265	101.574419	942.406819	-53.156792	0.244645	0	-0.16629	0	5.729653	0	4.517716	10.126146	1.485155	0.763121	0	-0.311376	0	-1.03433	0
0.827	102.035751	942.594409	-53.142421	0.244827	0	-0.166316	0	5.704259	0	4.623872	10.492216	1.449703	0.762858	0	-0.311206	0	-1.035673	0
0.8275	102.498995	942.762523	-53.126704	0.245009	0	-0.166343	0	5.678949	0	4.733323	10.870672	1.413039	0.762605	0	-0.311042	0	-1.036991	0
0.828	102.964124	942.910937	-53.109608	0.245191	0	-0.16637	0	5.653726	0	4.846151	11.261899	1.375126	0.762362	0	-0.310884	0	-1.038284	0
0.8285	103.43111	943.039435	-53.091095	0.245372	0	-0.166397	0	5.628596	0	4.962439	11.666294	1.335929	0.762129	0	-0.31073	0	-1.039557	0
0.829	103.899928	943.147804	-53.07113	0.245552	0	-0.166424	0	5.603563	0	5.08227	12.084261	1.295411	0.761907	0	-0.310581	0	-1.04081	0
0.8295	104.37055	943.235835	-53.049676	0.245732	0	-0.166452	0	5.57863	0	5.20573	12.516211	1.253534	0.761694	0	-0.310436	0	-1.042044	0
0.83	104.842952	943.303323	-53.026694	0.245912	0	-0.16648	0	5.5538	0	5.332905	12.962561	1.21026	0.761491	0	-0.310295	0	-1.04326	0
0.8305	105.31711	943.350068	-53.002147	0.246091	0	-0.166508	0	5.529077	0	5.463883	13.423737	1.165547	0.761297	0	-0.310159	0	-1.044458	0
0.831	105.793003	943.375878	-52.975997	0.24627	0	-0.166536	0	5.504462	0	5.59875	13.90017	1.119356	0.761112	0	-0.310027	0	-1.045639	0
0.8315	106.270608	943.38057	-52.948204	0.246448	0	-0.166565	0	5.479958	0	5.737597	14.392301	1.071643	0.760935	0	-0.309899	0	-1.046802	0
0.832	106.749905	943.363968	-52.918732	0.246626	0	-0.166593	0	5.455568	0	5.880513	14.900578	1.022367	0.760766	0	-0.309775	0	-1.047947	0
0.8325	107.230871	943.325898	-52.887539	0.246803	0	-0.166622	0	5.431295	0	6.027587	15.425459	0.971483	0.760605	0	-0.309655	0	-1.049077	0
0.833	107.713484	943.266196	-52.854589	0.24698	0	-0.166652	0	5.407144	0	6.178909	15.967411	0.918945	0.760452	0	-0.309539	0	-1.05019	0
0.8335	108.19772	943.184703	-52.819845	0.247156	0	-0.166681	0	5.383119	0	6.334568	16.526912	0.864708	0.760305	0	-0.309426	0	-1.051289	0
0.834	108.683554	943.081265	-52.783272	0.247332	0	-0.166711	0	5.359224	0	6.49465	17.104448	0.808724	0.760165	0	-0.309318	0	-1.052373	0
0.8345	109.17096	942.955732	-52.744836	0.247507	0	-0.166741	0	5.335466	0	6.659243	17.700515	0.750945	0.760032	0	-0.309213	0	-1.053445	0
0.835	109.65991	942.807958	-52.704502	0.247682	0	-0.166772	0	5.311848	0	6.828429	18.315615	0.69132	0.759906	0	-0.309112	0	-1.054503	0
0.8355	110.150375	942.637799	-52.662236	0.247857	0	-0.166802	0	5.288373	0	7.002293	18.950263	0.629799	0.759785	0	-0.309014	0	-1.055551	0
0.836	110.642325	942.445117	-52.618004	0.248031	0	-0.166833	0	5.265045	0	7.180914	19.604979	0.566331	0.759671	0	-0.30892	0	-1.056588	0
0.8365	111.135727	942.229782	-52.571773	0.248205	0	-0.166864	0	5.241865	0	7.364373	20.280293	0.500863	0.759562	0	-0.308828	0	-1.057618	0
0.837	111.630549	941.991669	-52.523513	0.248378	0	-0.166896	0	5.218839	0	7.552747	20.976741	0.433344	0.759459	0	-0.30874	0	-1.058641	0
0.8375	112.126754	941.730661	-52.473192	0.248551	0	-0.166928	0	5.195969	0	7.746113	21.694867	0.363723	0.759361	0	-0.308655	0	-1.05966	0
0.838	112.624307	941.446645	-52.420781	0.248724	0	-0.16696	0	5.173258	0	7.944542	22.435221	0.29195	0.759268	0	-0.308572	0	-1.060677	0
0.8385	113.123167	941.13951	-52.366253	0.248896	0	-0.166992	0	5.150711	0	8.148105	23.198361	0.217973	0.759181	0	-0.308492	0	-1.061693	0
0.839	113.623295	940.809149	-52.309581	0.249068	0	-0.167024	0	5.128331	0	8.356868	23.984849	0.141742	0.759098	0	-0.308415	0	-1.062709	0
0.8395	114.124647	940.455458	-52.250737	0.249239	0	-0.167057	0	5.106122	0	8.570895	24.795253	0.063205	0.75902	0	-0.30834	0	-1.063726	0
0.84	114.627176	940.078336	-52.189695	0.24941	0	-0.16709	0	5.084089	0	8.790245	25.630143	-0.017689	0.758947	0	-0.308268	0	-1.064745	0
0.8405	115.130834	939.677691	-52.12643	0.249581	0	-0.167124	0	5.062233	0	9.014971	26.490095	-0.10099	0.758877	0	-0.308198	0	-1.065766	0
0.841	115.635567	939.253432	-52.060917	0.249752	0	-0.167157	0	5.040558	0	9.245122	27.375686	-0.186748	0.758812	0	-0.308131	0	-1.06679	0
0.8415	116.141321	938.805473	-51.993132	0.249923	0	-0.167191	0	5.019065	0	9.480739	28.287498	-0.275013	0.758751	0	-0.308066	0	-1.06782	0
0.842	116.648036	938.333734	-51.923053	0.250093	0	-0.167226	0	4.997757	0	9.721854	29.226115	-0.365834	0.758694	0	-0.308003	0	-1.068855	0
0.8425	117.155647	937.838135	-51.850662	0.250263	0	-0.16726	0	4.976635	0	9.968493	30.192118	-0.45926	0.758641	0	-0.307942	0	-1.069897	0
0.843	117.664086	937.318604	-51.775939	0.250432	0	-0.167295	0	4.955703	0	10.220674	31.186094	-0.555343	0.758591	0	-0.307883	0	-1.070946	0
0.8435	118.17328	936.775069	-51.69887	0.250602	0	-0.16733	0	4.934963	0	10.478406	32.208626	-0.654132	0.758545	0	-0.307826	0	-1.072004	0
0.844	118.683155	936.207464	-51.61944	0.250771	0	-0.167366	0	4.91442	0	10.741688	33.260296	-0.755675	0.758503	0	-0.307771	0	-1.073069	0
0.8445	119.193631	935.615719	-51.537636	0.25094	0	-0.167402	0	4.894077	0	11.010508	34.341679	-0.860021	0.758464	0	-0.307717	0	-1.074143	0
0.845	119.704631	934.999772	-51.453447	0.251109	0	-0.167438	0	4.873941	0	11.284842	35.453345	-0.967216	0.758428	0	-0.307665	0	-1.075226	0
0.8455	120.216072	934.35956	-51.366861	0.251278	0	-0.167474	0	4.854014	0	11.564655	36.595855	-1.077303	0.758396	0	-0.307615	0	-1.076319	0
0.846	120.727871	933.695026	-51.277865	0.251446	0	-0.167511	0	4.834303	0	11.849897	37.769762	-1.190328	0.758367	0	-0.307566	0	-1.077421	0
0.8465	121.239946	933.006114	-51.186451	0.251614	0	-0.167547	0	4.81481	0	12.140501	38.975607	-1.30633	0.758342	0	-0.307519	0	-1.078533	0
0.847	121.752211	932.292774	-51.092605	0.251782	0	-0.167585	0	4.795538	0	12.436387	40.213918	-1.425352	0.75832	0	-0.307474	0	-1.079655	0
0.8475	122.264584	931.554958	-50.996318	0.25195	0	-0.167622	0	4.776487	0	12.737456	41.485207	-1.547431	0.758301	0	-0.30743	0	-1.080786	0
0.848	122.776981	930.792623	-50.897578	0.252117	0	-0.16766	0	4.757656	0	13.043591	42.789968	-1.672605	0.758285	0	-0.307388	0	-1.081924	0
0.8485	123.289322	930.005727	-50.796372	0.252284	0	-0.167698	0	4.739043	0	13.354651	44.128674	-1.800905	0.758272	0	-0.307347	0	-1.083068	0
0.849	123.801523	929.194228	-50.692693	0.252451	0	-0.167737	0	4.720647	0	13.670475	45.501775	-1.932362	0.758263	0	-0.307307	0	-1.084216	0
0.8495	124.313505	928.358084	-50.586531	0.252617	0	-0.167775	0	4.702468	0	13.990876	46.909693	-2.067004	0.758256	0	-0.307269	0	-1.085367	0
0.85	124.825184	927.497253	-50.47788	0.252784	0	-0.167814	0	4.684504	0	14.315639	48.352821	-2.204855	0.758253	0	-0.307232	0	-1.086519	0
